<svg width="464" height="537" viewBox="0 0 464 537" fill="none" xmlns="http://www.w3.org/2000/svg">
<path fill-rule="evenodd" clip-rule="evenodd" d="M463.851 402.904L464.007 402.814V134.915L232 0.965271L-0.00744629 134.915L-0.00744629 402.814L232 536.763L463.128 403.321C463.39 403.277 463.632 403.215 463.851 403.133V402.904ZM223.391 65.8948L51.9189 164.895V372.834L157.602 433.851L287.641 140.8L272.958 107.676C266.935 93.1734 258.276 82.2967 246.981 75.0456C240.413 70.6829 232.549 67.6327 223.391 65.8948ZM196.123 456.091L232 476.804L390.27 385.427C389.558 383.889 388.855 382.274 388.159 380.582L343.547 270.332C341.288 264.399 338.653 257.643 335.641 250.062C332.629 242.151 329.429 234.076 326.041 225.836C323.029 217.596 320.206 209.851 317.57 202.6C315.311 195.349 313.429 189.086 311.923 183.813H309.664C307.029 195.678 302.888 209.357 297.241 224.848C291.97 240.339 286.888 254.676 281.993 267.86L196.123 456.091ZM412.081 313.311L327.252 115.918L412.081 164.895V313.311Z" fill="white"/>
</svg>
